<svg width="128" height="128" viewBox="0 0 128 128" fill="none" xmlns="http://www.w3.org/2000/svg">
<g clip-path="url(#clip0_5028_53)">
<path d="M15.28 52.7427V95.3145C15.28 98.3768 16.926 101.204 19.5931 102.724L57.0183 124.043C58.4449 124.855 60.22 123.829 60.22 122.191V79.6187C60.22 76.5565 58.574 73.729 55.9069 72.2097L18.4817 50.8905C17.0551 50.0778 15.28 51.1047 15.28 52.7427Z" fill="#00AE9D"/>
<path d="M73.0931 72.2097L110.518 50.8905C111.945 50.0778 113.72 51.1047 113.72 52.7427V95.3145C113.72 98.3768 112.074 101.204 109.407 102.724L71.9817 124.043C70.5551 124.855 68.78 123.829 68.78 122.191V79.6187C68.78 76.5565 70.426 73.729 73.0931 72.2097Z" fill="#FBAB18"/>
<path d="M60.2532 19.4859L22.8117 40.8144C21.374 41.6334 21.374 43.6999 22.8117 44.5189L60.2532 65.8474C62.8848 67.3465 66.1155 67.3465 68.7471 65.8474L106.189 44.5189C107.626 43.6999 107.626 41.6334 106.189 40.8144L68.7471 19.4859C66.1155 17.9868 62.8848 17.9868 60.2532 19.4859Z" fill="#009BDB"/>
<path d="M53.8 25.6V27.7333L24.2131 45.3165L19.5579 42.6667C14.21 39.4667 11 32.5786 11 25.6C11 13.8179 20.5811 4.26667 32.4 4.26667C44.2189 4.26667 53.8 13.8179 53.8 25.6Z" fill="#009BDB"/>
<ellipse cx="60.22" cy="27.7333" rx="17.12" ry="17.0667" fill="#009BDB"/>
<ellipse cx="81.62" cy="32" rx="10.7" ry="10.6667" fill="#009BDB"/>
</g>
<defs>
<clipPath id="clip0_5028_53">
<rect width="128" height="128" fill="white"/>
</clipPath>
</defs>
</svg>
